<?xml version="1.0" encoding="UTF-8"?>
<svg width="16" height="16" xmlns="http://www.w3.org/2000/svg">
 <g fill="#474747">
  <path d="M4.197 0A2.217 2.217 0 0 0 2 2.201V13.8C2 14.999 2.995 16 4.197 16h7.607A2.215 2.215 0 0 0 14 13.799V2.2C14 1.001 13.006 0 11.804 0zm0 2h7.607c.124 0 .196.07.196.201V13.8c0 .13-.072.201-.196.201H4.197C4.073 14 4 13.93 4 13.799V2.2c0-.13.073-.201.197-.201z" color="#bebebe" font-family="sans-serif" font-weight="400" overflow="visible" style="font-feature-settings:normal;font-variant-alternates:normal;font-variant-caps:normal;font-variant-ligatures:normal;font-variant-numeric:normal;font-variant-position:normal;isolation:auto;mix-blend-mode:normal;shape-padding:0;text-decoration-color:#000;text-decoration-line:none;text-decoration-style:solid;text-indent:0;text-orientation:mixed;text-transform:none" white-space="normal"/>
  <path d="M8.78 5a1.023 1.023 0 0 0-.47.281l-3.03 3c-.236.231-.345.583-.282.906V10H7.468l-1.187 1.274c-.214.219-.32.54-.28.843a1.464 1.464 0 0 0 0 .094v.781H7a1.03 1.03 0 0 0 .719-.281l3-2.992c.184-.19.287-.455.281-.719a.87.87 0 0 0 0-.125V8H8.436l1.312-1.281c.215-.22.322-.54.281-.844a1.464 1.464 0 0 0 0-.094V5H9.03a1.015 1.015 0 0 0-.25 0z" color="#bebebe" font-family="Bitstream Vera Sans" font-size="xx-small" font-weight="400" overflow="visible" style="text-decoration-line:none;text-indent:0;text-transform:none"/>
  <path d="M5 3h1v1H5zM7 3h4v1H7z" overflow="visible"/>
 </g>
</svg>
