<?xml version="1.0" encoding="UTF-8"?>
<svg id="svg7384" width="16.001" height="16" style="enable-background:new" version="1.1" xmlns="http://www.w3.org/2000/svg" xmlns:cc="http://creativecommons.org/ns#" xmlns:dc="http://purl.org/dc/elements/1.1/" xmlns:rdf="http://www.w3.org/1999/02/22-rdf-syntax-ns#">
 <metadata id="metadata90">
  <rdf:RDF>
   <cc:Work rdf:about="">
    <dc:format>image/svg+xml</dc:format>
    <dc:type rdf:resource="http://purl.org/dc/dcmitype/StillImage"/>
    <dc:title>Gnome Symbolic Icons</dc:title>
    <cc:license rdf:resource="http://creativecommons.org/licenses/by-sa/4.0/"/>
   </cc:Work>
   <cc:License rdf:about="http://creativecommons.org/licenses/by-sa/4.0/">
    <cc:permits rdf:resource="http://creativecommons.org/ns#Reproduction"/>
    <cc:permits rdf:resource="http://creativecommons.org/ns#Distribution"/>
    <cc:requires rdf:resource="http://creativecommons.org/ns#Notice"/>
    <cc:requires rdf:resource="http://creativecommons.org/ns#Attribution"/>
    <cc:permits rdf:resource="http://creativecommons.org/ns#DerivativeWorks"/>
    <cc:requires rdf:resource="http://creativecommons.org/ns#ShareAlike"/>
   </cc:License>
  </rdf:RDF>
 </metadata>
 <title id="title8473">Gnome Symbolic Icons</title>
 <g id="layer6" transform="translate(288 -408)">
  <path id="path3636" d="m-287 409c-0.55226 5e-5 -0.99994 0.44774-1 1v11s-0.0138 0.45875 0.23047 0.94727c0.24426 0.48851 0.9362 1.0527 1.7695 1.0527h12s0.45875 0.0138 0.94727-0.23047c0.48851-0.24426 1.0527-0.9362 1.0527-1.7695v-7h-13v7h-1v-7s0-1 1-1h11v-0.83203c0.105-0.61631-0.37487-1.1768-1-1.168h-4.5859l-1.707-1.707c-0.18751-0.18754-0.44183-0.29292-0.70703-0.29297z" style="color-rendering:auto;color:#000000;dominant-baseline:auto;enable-background:new;fill-rule:evenodd;fill:#2e3436;font-feature-settings:normal;font-variant-alternates:normal;font-variant-caps:normal;font-variant-ligatures:normal;font-variant-numeric:normal;font-variant-position:normal;image-rendering:auto;isolation:auto;mix-blend-mode:normal;shape-padding:0;shape-rendering:auto;solid-color:#000000;text-decoration-color:#000000;text-decoration-line:none;text-decoration-style:solid;text-indent:0;text-orientation:mixed;text-transform:none;white-space:normal"/>
 </g>
</svg>
