<?xml version="1.0" encoding="UTF-8"?>
<svg width="16" height="16" xmlns="http://www.w3.org/2000/svg">
 <g fill="#474747">
  <path d="M3 1a1 1 0 0 0-1 1v13a1 1 0 0 0 1 1h10a1 1 0 0 0 1-1V5.5a1 1 0 0 0-.293-.707l-3.5-3.5A1 1 0 0 0 9.5 1zm1 2h5.086L12 5.914V14H4z" fill-rule="evenodd" font-family="sans-serif" font-weight="400" overflow="visible" style="font-feature-settings:normal;font-variant-alternates:normal;font-variant-caps:normal;font-variant-ligatures:normal;font-variant-numeric:normal;font-variant-position:normal;isolation:auto;mix-blend-mode:normal;shape-padding:0;text-decoration-color:#000;text-decoration-line:none;text-decoration-style:solid;text-indent:0;text-orientation:mixed;text-transform:none" white-space="normal"/>
  <path d="m9 2v4h4z" fill-rule="evenodd"/>
  <path d="m4.986 3.986h1v1h-1zm2 0h1v1h-1zm-2 2h1v1h-1zm2 0h1v1h-1zm-2 6h1v1h-1zm2 0h1v1h-1zm2 0h1v1h-1zm-4-0.989h6v-1.011l-1.469-2.552-1.531 2.047-1.469-1.061-1.531 1.566z" overflow="visible"/>
 </g>
</svg>
