<?xml version="1.0" encoding="UTF-8"?>
<svg width="16" height="16" xmlns="http://www.w3.org/2000/svg">
 <g fill="#2e3436">
  <path d="M.5 4h2c.277 0 .5-.223.5-.5v-1c0-.277-.223-.5-.5-.5h-2c-.277 0-.5.223-.5.5v1c0 .277.223.5.5.5zM13.5 4h2c.277 0 .5-.223.5-.5v-1c0-.277-.223-.5-.5-.5h-2c-.277 0-.5.223-.5.5v1c0 .277.223.5.5.5zM11.182 7.596l1.414 1.415a.499.499 0 0 0 .707 0l.707-.708a.499.499 0 0 0 0-.707l-1.414-1.414a.499.499 0 0 0-.707 0l-.707.707a.499.499 0 0 0 0 .707zM9 8.5v4c0 .277-.223.5-.5.5h-1a.499.499 0 0 1-.5-.5v-4c0-.277.223-.5.5-.5h1c.277 0 .5.223.5.5zM3.404 6.182L1.989 7.596a.499.499 0 0 0 0 .707l.708.707a.499.499 0 0 0 .707 0l1.414-1.414a.499.499 0 0 0 0-.707l-.707-.707a.499.499 0 0 0-.707 0z" color="#bebebe" overflow="visible"/>
  <path d="M8 7C5.803 7 4 5.197 4 3a1 1 0 0 1 1-1h6a1 1 0 0 1 1 1c0 2.197-1.803 4-4 4zm0-2c.723 0 1.239-.436 1.59-1H6.41c.351.564.867 1 1.59 1zM6.707 11.293l-1.414 1.414L8 15.414l2.707-2.707-1.414-1.414L8 12.586z" font-family="sans-serif" font-weight="400" overflow="visible" style="font-feature-settings:normal;font-variant-alternates:normal;font-variant-caps:normal;font-variant-ligatures:normal;font-variant-numeric:normal;font-variant-position:normal;isolation:auto;mix-blend-mode:normal;shape-padding:0;text-decoration-color:#000;text-decoration-line:none;text-decoration-style:solid;text-indent:0;text-orientation:mixed;text-transform:none" white-space="normal"/>
  <path d="m10 12v-1h1v1zm-5 0v-1h1v1z" overflow="visible"/>
  <path d="M5 12c0-.554.446-1 1-1s1 .446 1 1-.446 1-1 1-1-.446-1-1zM9 12c0-.554.446-1 1-1s1 .446 1 1-.446 1-1 1-1-.446-1-1zM5 3a3 3 0 0 0 3 3 3 3 0 0 0 3-3H8z" overflow="visible"/>
 </g>
</svg>
