<?xml version="1.0" encoding="UTF-8"?>
<svg width="16" height="16" xmlns="http://www.w3.org/2000/svg">
 <g fill="#474747">
  <path d="M1 1a1 1 0 0 0-1 1v11s-.014.459.23.947C.476 14.436 1.168 15 2 15h1.832a1 1 0 0 0 .326 0H14s.459.014.947-.23C15.436 14.525 16 13.833 16 13V9a1 1 0 0 0-1-1H4a1 1 0 0 0-1 1v4H2V3h3.586l1.707 1.707A1 1 0 0 0 8 5H7a1 1 0 1 0 0 2h6a1 1 0 0 0 1-1V4a1 1 0 0 0-1-1H8.414L6.707 1.293A1 1 0 0 0 6 1zm4 9h9v3H5z" fill-rule="evenodd" font-family="sans-serif" font-weight="400" overflow="visible" style="font-feature-settings:normal;font-variant-alternates:normal;font-variant-caps:normal;font-variant-ligatures:normal;font-variant-numeric:normal;font-variant-position:normal;isolation:auto;mix-blend-mode:normal;shape-padding:0;text-decoration-color:#000;text-decoration-line:none;text-decoration-style:solid;text-indent:0;text-orientation:mixed;text-transform:none" white-space="normal"/>
  <path d="M1 8h1s0-1 1-1h8L6 2H1z" fill-rule="evenodd"/>
  <path d="M4 9h11v5H4zM13 6h1v1h-1zM15 8h1v1h-1zM3 8h1v1H3z"/>
 </g>
</svg>
