<?xml version="1.0" encoding="UTF-8"?>
<svg width="16" height="16" xmlns="http://www.w3.org/2000/svg">
 <g fill="#474747" stroke="#474747">
  <path d="M15 4h-3c-1.108 0-2 .892-2 2v4c0 1.108-.892 2-2 2H2" color="#bebebe" fill="none" overflow="visible" stroke-width="2"/>
  <path d="m4 10-2 2 2 2m0-12-2 2 2 2" color="#bebebe" fill="none" overflow="visible" stroke-linecap="round" stroke-width="2"/>
  <path d="M8 3c.23 0 .44.044.656.094-.481.55-.861 1.177-1.031 1.906H2V3h6zm7 8v2h-3c-.23 0-.44-.044-.656-.094.481-.55.861-1.177 1.031-1.906z" color="#bebebe" font-family="Andale Mono" font-weight="400" overflow="visible" stroke="none" style="text-decoration-line:none;text-indent:0;text-transform:none"/>
  <path d="M5 9H4v1h1zM5 14H4v1h1zM5 1H4v1h1zM5 6H4v1h1z" overflow="visible" stroke="none"/>
 </g>
</svg>
