<?xml version="1.0" encoding="UTF-8"?>
<svg width="16" height="16" xmlns="http://www.w3.org/2000/svg">
 <g fill="#474747">
  <path d="M8 1C6.355 1 5 2.355 5 4v1H4v1.01h8V5h-1V4c0-1.645-1.355-3-3-3zm0 2c.564 0 1 .436 1 1v1H7V4c0-.564.436-1 1-1zm-4 8v1.01h3V13H2v2h12v-2H9v-.99h3V11z" color="#bebebe" font-family="sans-serif" font-weight="400" opacity=".5" overflow="visible" style="isolation:auto;mix-blend-mode:normal;text-decoration-color:#000;text-decoration-line:none;text-decoration-style:solid;text-indent:0;text-transform:none" white-space="normal"/>
  <path d="M5 8.5A1.5 1.5 0 0 1 3.5 10 1.5 1.5 0 0 1 2 8.5 1.5 1.5 0 0 1 3.5 7 1.5 1.5 0 0 1 5 8.5zM9 8.5A1.5 1.5 0 0 1 7.5 10 1.5 1.5 0 0 1 6 8.5 1.5 1.5 0 0 1 7.5 7 1.5 1.5 0 0 1 9 8.5zM13 8.5a1.5 1.5 0 0 1-1.5 1.5A1.5 1.5 0 0 1 10 8.5 1.5 1.5 0 0 1 11.5 7 1.5 1.5 0 0 1 13 8.5z"/>
 </g>
</svg>
