<?xml version="1.0" encoding="UTF-8"?>
<svg width="16.034" height="16.063" xmlns="http://www.w3.org/2000/svg">
 <g fill="#2e3436" font-weight="400">
  <path d="M8.116 1A7.013 7.013 0 0 0 1.03 8.61 7.013 7.013 0 0 0 8.003 15a1 1 0 1 0 0-2 4.987 4.987 0 0 1-4.98-4.564 4.986 4.986 0 0 1 4.11-5.36A4.976 4.976 0 0 1 12.572 6h-1.568c-.554 0-1 .446-1 1v1h6V2h-1c-.554 0-1 .446-1 1v1.396A7.027 7.027 0 0 0 8.116 1z" fill-rule="evenodd" font-family="sans-serif" opacity=".35" overflow="visible" style="font-feature-settings:normal;font-variant-alternates:normal;font-variant-caps:normal;font-variant-ligatures:normal;font-variant-numeric:normal;font-variant-position:normal;isolation:auto;mix-blend-mode:normal;shape-padding:0;text-decoration-color:#000;text-decoration-line:none;text-decoration-style:solid;text-indent:0;text-orientation:mixed;text-transform:none" white-space="normal"/>
  <path d="M13.034 8.938c-1.089 0-2 .878-2 1.968V12h-.969v4.063h5.97V12h-1.032v-1.094c0-1.09-.88-1.969-1.969-1.969zm0 1c.546 0 .969.417.969.968V12h-1.969v-1.094c0-.551.454-.969 1-.969z" font-family="Sans" overflow="visible" style="text-decoration-line:none;text-indent:0;text-transform:none"/>
 </g>
</svg>
