<?xml version="1.0" encoding="UTF-8"?>
<svg width="16" height="16" xmlns="http://www.w3.org/2000/svg">
 <g fill="#474747">
  <path d="M10.293 2.293L4.586 8l5.707 5.707 1.414-1.414L7.414 8l4.293-4.293z" font-family="sans-serif" font-weight="400" overflow="visible" style="font-feature-settings:normal;font-variant-alternates:normal;font-variant-caps:normal;font-variant-ligatures:normal;font-variant-numeric:normal;font-variant-position:normal;isolation:auto;mix-blend-mode:normal;shape-padding:0;text-decoration-color:#000;text-decoration-line:none;text-decoration-style:solid;text-indent:0;text-orientation:mixed;text-transform:none" white-space="normal"/>
  <path d="m11 13h1v1h-1zm0-11h1v1h-1z" overflow="visible"/>
  <path d="M11 2c.554 0 1 .446 1 1s-.446 1-1 1-1-.446-1-1 .446-1 1-1zM11 12c.554 0 1 .446 1 1s-.446 1-1 1-1-.446-1-1 .446-1 1-1z" overflow="visible"/>
 </g>
</svg>
