<?xml version="1.0" encoding="UTF-8"?>
<svg width="16" height="16" xmlns="http://www.w3.org/2000/svg">
 <g fill="#474747">
  <path d="M7.985 2a1 1 0 0 0-.692.293l-5 5A1 1 0 0 0 3 9h10a1 1 0 0 0 .707-1.707l-5-5A1 1 0 0 0 7.985 2zM8 4.414L10.586 7H5.414zM2.002 10.998l-.004 2 1 .002 10 .014 1 .002.004-2-1-.002-10-.014z" font-family="sans-serif" font-weight="400" overflow="visible" style="font-feature-settings:normal;font-variant-alternates:normal;font-variant-caps:normal;font-variant-ligatures:normal;font-variant-numeric:normal;font-variant-position:normal;isolation:auto;mix-blend-mode:normal;shape-padding:0;text-decoration-color:#000;text-decoration-line:none;text-decoration-style:solid;text-indent:0;text-orientation:mixed;text-transform:none" white-space="normal"/>
  <path d="M13 8v1h1V8zM2 8v1h1V8zM3 8l5-5 5 5z" overflow="visible"/>
 </g>
</svg>
