<?xml version="1.0" encoding="UTF-8"?>
<svg width="16" height="16" xmlns="http://www.w3.org/2000/svg">
 <g fill="#474747">
  <path d="M6.97 4a1 1 0 0 0-.484.143l-5 3a1 1 0 0 0 0 1.714l5 3A1 1 0 0 0 8 11V5a1 1 0 0 0-1.03-1zM6 6.766v2.468L3.943 8z" font-family="sans-serif" font-weight="400" overflow="visible" style="font-feature-settings:normal;font-variant-alternates:normal;font-variant-caps:normal;font-variant-ligatures:normal;font-variant-numeric:normal;font-variant-position:normal;isolation:auto;mix-blend-mode:normal;shape-padding:0;text-decoration-color:#000;text-decoration-line:none;text-decoration-style:solid;text-indent:0;text-orientation:mixed;text-transform:none" white-space="normal"/>
  <path d="M7 11h1v1H7zM7 4h1v1H7z" overflow="visible"/>
  <path d="M13.97 4a1 1 0 0 0-.484.143l-5 3a1 1 0 0 0 0 1.714l5 3A1 1 0 0 0 15 11V5a1 1 0 0 0-1.03-1zM13 6.766v2.468L10.943 8z" font-family="sans-serif" font-weight="400" overflow="visible" style="font-feature-settings:normal;font-variant-alternates:normal;font-variant-caps:normal;font-variant-ligatures:normal;font-variant-numeric:normal;font-variant-position:normal;isolation:auto;mix-blend-mode:normal;shape-padding:0;text-decoration-color:#000;text-decoration-line:none;text-decoration-style:solid;text-indent:0;text-orientation:mixed;text-transform:none" white-space="normal"/>
  <path d="m14 11h1v1h-1zm0-7h1v1h-1zm-7 1-5 3 5 3zm7 0-5 3 5 3z" overflow="visible"/>
 </g>
</svg>
